_________________________  Visit us at _________________________
  
http://p2pdl.com  ____________________________  http://p2pdl.com

 
http://www.shotpix.com/images/92216551792265569672.jpg


Rihanna - Stay (Ft. Mikky Ekko) 2013 M4A+MP4 (1080p) x264 [VX] [P2PDL]


                           1080p Full HD MP4 Video
                                     +
                           128 Kbps/VBR M4A Audio

General
Complete name                  : Rihanna Ft. Mikky Ekko - Stay (1080p) x264 [VX] [P2PDL].mp4
Format                         : MPEG-4
Format profile                 : Base Media / Version 2
Codec ID                       : mp42
File size                      : 40.7 MiB
Duration                       : 4mn 7s
Overall bit rate mode          : Variable
Overall bit rate               : 1 380 Kbps

Video
Format                         : AVC
Format/Info                    : Advanced Video Codec
Format profile                 : High@L4.0
Bit rate mode                  : Variable
Bit rate                       : 1 250 Kbps
Width                          : 1 920 pixels
Height                         : 1 080 pixels
Display aspect ratio           : 16:9
Frame rate mode                : Variable
Stream size                    : 36.9 MiB (91%)
Writing library                : x264 core 129

Audio
Format                         : AAC
Format/Info                    : Advanced Audio Codec
Format profile                 : LC
Bit rate mode                  : Variable
Bit rate                       : 124 Kbps
Channel(s)                     : 2 channels
Channel positions              : Front: L R
Sampling rate                  : 48.0 KHz
Stream size                    : 3.66 MiB (9%)

Subtitles                      : No

Screens:
 
http://www.shotpix.com/images/41783145356562457536.jpg 
http://www.shotpix.com/images/17730686912894533602.jpg

Thumbs:
 
http://www.shotpix.com/images/69010234885983398208.jpg
------------------------------------------------------------------------

Notes:

* Recommended to use latest version VLC Media Player.
* Install shark007 codecs in case of any kind of problem in playback (For non-VLC Media Player users).
* Alternatively, install Core AVC codecs, the fastest decoder that there is coupled with Community Center Codec Pack and play on Windows Media Player Classic.

Greets to: VYTO, a2zRG, MusiK_KinG, Kuroyukihime, Caveman, Ash968, Neon, TwentyForty, Masta, TorDigger and staff members at ExtraTorrent, TPB, H33T, KAT, 1337x, PublicHD, Ahashare, TorrentMafia, Limetorrents, BTScene, P2PDL, and all others

Encoder Notes: Looking For Early Access To Anything You Can Provide DVDScr, R5, DVDRips, BluRay, Direct Audio, Early Music
Releases, Seedboxes, Links, Dedicated Servers anything u can provide, Advance / Promo CDs/DVDs. If You Got anything to
offer contact me at "prg@hush.com"

face book . com / p2pdl